HIERARCHY
ROOT hip
{
  OFFSET 49.3132 84.9622 241.148
  CHANNELS 6 Xposition Yposition Zposition Zrotation Xrotation Yrotation
  JOINT abdomen
  {
    OFFSET 0 20.6881 -0.73152
    CHANNELS 3 Zrotation Xrotation Yrotation
    JOINT chest
    {
      OFFSET 0 11.7043 -0.48768
      CHANNELS 3 Zrotation Xrotation Yrotation
      JOINT neck
      {
        OFFSET 0 22.1894 -2.19456
        CHANNELS 3 Zrotation Xrotation Yrotation
        JOINT head
        {
          OFFSET -0.24384 7.07133 1.2192
          CHANNELS 3 Zrotation Xrotation Yrotation
          JOINT leftEye
          {
            OFFSET 4.14528 8.04674 8.04672
            CHANNELS 3 Zrotation Xrotation Yrotation
            End Site
            {
              OFFSET 1 0 0
            }
          }
          JOINT rightEye
          {
            OFFSET -3.6576 8.04674 8.04672
            CHANNELS 3 Zrotation Xrotation Yrotation
            End Site
            {
              OFFSET 1 0 0
            }
          }
        }
      }
      JOINT rCollar
      {
        OFFSET -2.68224 19.2634 -4.8768
        CHANNELS 3 Zrotation Xrotation Yrotation
        JOINT rShldr
        {
          OFFSET -8.77824 -1.95073 1.46304
          CHANNELS 3 Zrotation Xrotation Yrotation
          JOINT rForeArm
          {
            OFFSET -28.1742 -1.7115 0.48768
            CHANNELS 3 Zrotation Xrotation Yrotation
            JOINT rHand
            {
              OFFSET -22.5879 0.773209 7.07136
              CHANNELS 3 Zrotation Xrotation Yrotation
              JOINT rThumb1
              {
                OFFSET -1.2192 -0.487915 3.41376
                CHANNELS 3 Zrotation Xrotation Yrotation
                JOINT rThumb2
                {
                  OFFSET -3.37035 -0.52449 3.41376
                  CHANNELS 3 Zrotation Xrotation Yrotation
                  End Site
                  {
                    OFFSET -1.78271 -1.18214 1.43049
                  }
                }
              }
              JOINT rIndex1
              {
                OFFSET -7.75947 0.938293 5.60832
                CHANNELS 3 Zrotation Xrotation Yrotation
                JOINT rIndex2
                {
                  OFFSET -2.54057 -0.884171 1.56538
                  CHANNELS 3 Zrotation Xrotation Yrotation
                  End Site
                  {
                    OFFSET -1.62519 -0.234802 1.16502
                  }
                }
              }
              JOINT rMid1
              {
                OFFSET -8.24714 1.18213 3.41376
                CHANNELS 3 Zrotation Xrotation Yrotation
                JOINT rMid2
                {
                  OFFSET -3.10165 -0.590103 1.0647
                  CHANNELS 3 Zrotation Xrotation Yrotation
                  End Site
                  {
                    OFFSET -2.48547 -0.328903 0.83742
                  }
                }
              }
              JOINT rRing1
              {
                OFFSET -8.82822 0.546677 1.51678
                CHANNELS 3 Zrotation Xrotation Yrotation
                JOINT rRing2
                {
                  OFFSET -2.60934 -0.819778 -0.0198488
                  CHANNELS 3 Zrotation Xrotation Yrotation
                  End Site
                  {
                    OFFSET -2.33842 -0.294052 0.168128
                  }
                }
              }
              JOINT rPinky1
              {
                OFFSET -8.27202 -0.0477905 -0.4584
                CHANNELS 3 Zrotation Xrotation Yrotation
                JOINT rPinky2
                {
                  OFFSET -1.82734 -0.647385 -0.700984
                  CHANNELS 3 Zrotation Xrotation Yrotation
                  End Site
                  {
                    OFFSET -1.69225 -0.51767 -0.607171
                  }
                }
              }
            }
          }
        }
      }
      JOINT lCollar
      {
        OFFSET 2.68224 19.2634 -4.8768
        CHANNELS 3 Zrotation Xrotation Yrotation
        JOINT lShldr
        {
          OFFSET 8.77824 -1.95073 1.46304
          CHANNELS 3 Zrotation Xrotation Yrotation
          JOINT lForeArm
          {
            OFFSET 28.1742 -1.7115 0.48768
            CHANNELS 3 Zrotation Xrotation Yrotation
            JOINT lHand
            {
              OFFSET 22.5879 0.773209 7.07136
              CHANNELS 3 Zrotation Xrotation Yrotation
              JOINT lThumb1
              {
                OFFSET 1.2192 -0.487915 3.41376
                CHANNELS 3 Zrotation Xrotation Yrotation
                JOINT lThumb2
                {
                  OFFSET 3.37035 -0.52449 3.41376
                  CHANNELS 3 Zrotation Xrotation Yrotation
                  End Site
                  {
                    OFFSET 1.78271 -1.18214 1.43049
                  }
                }
              }
              JOINT lIndex1
              {
                OFFSET 7.75947 0.938293 5.60832
                CHANNELS 3 Zrotation Xrotation Yrotation
                JOINT lIndex2
                {
                  OFFSET 2.54057 -0.884171 1.56538
                  CHANNELS 3 Zrotation Xrotation Yrotation
                  End Site
                  {
                    OFFSET 1.62519 -0.234802 1.16502
                  }
                }
              }
              JOINT lMid1
              {
                OFFSET 8.24714 1.18213 3.41376
                CHANNELS 3 Zrotation Xrotation Yrotation
                JOINT lMid2
                {
                  OFFSET 3.10165 -0.590103 1.0647
                  CHANNELS 3 Zrotation Xrotation Yrotation
                  End Site
                  {
                    OFFSET 2.48547 -0.328903 0.83742
                  }
                }
              }
              JOINT lRing1
              {
                OFFSET 8.82822 0.546677 1.51678
                CHANNELS 3 Zrotation Xrotation Yrotation
                JOINT lRing2
                {
                  OFFSET 2.60934 -0.819778 -0.0198488
                  CHANNELS 3 Zrotation Xrotation Yrotation
                  End Site
                  {
                    OFFSET 2.33842 -0.294052 0.168128
                  }
                }
              }
              JOINT lPinky1
              {
                OFFSET 8.27202 -0.0477905 -0.4584
                CHANNELS 3 Zrotation Xrotation Yrotation
                JOINT lPinky2
                {
                  OFFSET 1.82734 -0.647385 -0.700984
                  CHANNELS 3 Zrotation Xrotation Yrotation
                  End Site
                  {
                    OFFSET 1.69225 -0.51767 -0.607171
                  }
                }
              }
            }
          }
        }
      }
    }
  }
  JOINT rButtock
  {
    OFFSET -8.77824 4.35084 1.2192
    CHANNELS 3 Zrotation Xrotation Yrotation
    JOINT rThigh
    {
      OFFSET 0 -1.70687 -2.19456
      CHANNELS 3 Zrotation Xrotation Yrotation
      JOINT rShin
      {
        OFFSET 0 -36.8199 0.73152
        CHANNELS 3 Zrotation Xrotation Yrotation
        JOINT rFoot
        {
          OFFSET 0.73152 -45.1104 -5.12064
          CHANNELS 3 Zrotation Xrotation Yrotation
          End Site
          {
            OFFSET -1.1221 -3.69964 12.103
          }
        }
      }
    }
  }
  JOINT lButtock
  {
    OFFSET 8.77824 4.35084 1.2192
    CHANNELS 3 Zrotation Xrotation Yrotation
    JOINT lThigh
    {
      OFFSET 0 -1.70687 -2.19456
      CHANNELS 3 Zrotation Xrotation Yrotation
      JOINT lShin
      {
        OFFSET 0 -36.8199 0.73152
        CHANNELS 3 Zrotation Xrotation Yrotation
        JOINT lFoot
        {
          OFFSET -0.73152 -45.1104 -5.12064
          CHANNELS 3 Zrotation Xrotation Yrotation
          End Site
          {
            OFFSET 1.1221 -3.69964 12.103
          }
        }
      }
    }
  }
}
MOTION
Frames:	8
Frame Time:	0.00833333
50.3618 86.0053 -217.511 -0.142618 -1.81001 122.146 3.67753 8.32529 7.57209 0.299314 -8.21365 2.1949 -5.8855 6.52108 -8.02757 -9.34089 -14.551 -16.6542 -0 0 0 -0 0 0 7.15193e-014 -1.83231e-012 7.53969e-013 59.3301 13.0628 28.9599 -16.2681 -8.93825 30.2419 -0.101165 9.60906 1.36075 -3.37901e-009 9.2836e-010 -3.18594e-009 -5.86259e-009 1.55129e-009 -5.45579e-009 -3.37901e-009 9.28372e-010 -3.18596e-009 7.73091 5.47488 0.417314 -3.37901e-009 9.28359e-010 -3.18594e-009 2.90554 0.965183 0.102902 -3.37901e-009 9.28362e-010 -3.18595e-009 10.2786 0.731801 0.0259123 -3.37902e-009 9.28363e-010 -3.18593e-009 2.22167 -0.733487 -0.20892 7.13619e-014 -1.83231e-012 7.53605e-013 -66.468 49.9357 -19.8772 23.7474 -18.6379 -48.7832 0.0177619 -3.69835 0.52052 -1.55782e-009 -2.90266e-010 -6.58394e-010 -2.69167e-009 -4.88216e-010 -1.15272e-009 -1.55782e-009 -2.90262e-010 -6.58384e-010 -7.73091 5.47488 -0.417314 -1.55782e-009 -2.90262e-010 -6.5839e-010 -2.90554 0.965183 -0.102902 -1.55782e-009 -2.90262e-010 -6.58392e-010 -10.2786 0.731801 -0.0259123 -1.55782e-009 -2.90262e-010 -6.584e-010 -2.22167 -0.733487 0.20892 -2.03217e-016 0 -3.88251e-019 -3.12701 -26.4644 -2.62103 -1.04445 60.2533 1.64536 -5.02052 -2.13541 -21.1607 2.03217e-016 0 3.88251e-019 -11.6354 -14.624 -20.9194 0.115671 25.0766 -0.326747 -0.235916 -17.2295 -2.19806 
50.1865 85.9303 -217.609 0.11734 -1.89993 120.412 3.18435 8.49502 8.24244 0.166557 -8.28561 2.36535 -5.99836 5.97948 -7.28225 -8.88317 -13.9563 -14.967 -0 0 0 -0 0 0 6.1095e-014 -2.69597e-012 1.26493e-012 58.2548 14.7934 29.3972 -16.3462 -9.01246 30.4083 -0.175278 12.1691 1.73486 -6.72748e-009 -1.18343e-009 -4.32845e-009 -1.16637e-008 -2.15175e-009 -7.39227e-009 -6.72748e-009 -1.18342e-009 -4.32846e-009 7.73091 5.47488 0.417314 -6.72749e-009 -1.18343e-009 -4.32844e-009 2.90554 0.965183 0.102902 -6.72748e-009 -1.18343e-009 -4.32844e-009 10.2786 0.731801 0.0259123 -6.72749e-009 -1.18343e-009 -4.32843e-009 2.22167 -0.733487 -0.20892 6.09325e-014 -2.69596e-012 1.26457e-012 -64.3541 51.862 -21.9912 24.0237 -19.1455 -49.655 0.0195822 -3.96399 0.558003 -1.89626e-009 7.33266e-010 -1.74923e-009 -3.27293e-009 1.29111e-009 -3.04599e-009 -1.89625e-009 7.33272e-010 -1.74922e-009 -7.73091 5.47488 -0.417314 -1.89625e-009 7.33273e-010 -1.74922e-009 -2.90554 0.965183 -0.102902 -1.89626e-009 7.33272e-010 -1.74923e-009 -10.2786 0.731801 -0.0259123 -1.89625e-009 7.3327e-010 -1.74924e-009 -2.22167 -0.733487 0.20892 -2.03217e-016 0 -3.88251e-019 -2.97172 -27.0993 -1.9576 -1.12868 61.4904 1.73659 -4.96016 -3.09263 -19.4439 2.03217e-016 0 3.88251e-019 -11.8611 -14.3792 -21.2308 0.113673 25.1714 -0.314865 -0.768255 -17.24 -3.71492 
50.0764 85.8549 -217.668 0.241276 -1.89748 118.503 2.87475 8.59363 8.72405 0.0192065 -8.33114 2.48653 -5.80558 5.43485 -6.46298 -8.74745 -13.438 -13.2495 -0 0 0 -0 0 0 5.26132e-014 -3.21754e-012 1.52045e-012 57.2035 16.3435 29.9167 -16.4416 -9.10408 30.6105 -0.259425 14.3504 2.06052 -8.52079e-009 -2.4206e-009 -4.92176e-009 -1.47716e-008 -4.31794e-009 -8.39707e-009 -8.52079e-009 -2.42059e-009 -4.92177e-009 7.73091 5.47488 0.417314 -8.52079e-009 -2.4206e-009 -4.92176e-009 2.90554 0.965183 0.102902 -8.52078e-009 -2.4206e-009 -4.92176e-009 10.2786 0.731801 0.0259123 -8.5208e-009 -2.4206e-009 -4.92174e-009 2.22167 -0.733487 -0.20892 5.24478e-014 -3.21752e-012 1.52011e-012 -61.8998 53.6194 -24.4189 24.2362 -19.5449 -50.3653 0.021326 -4.16529 0.586437 -1.98334e-009 1.44979e-009 -2.39772e-009 -3.42105e-009 2.53558e-009 -4.17112e-009 -1.98334e-009 1.44979e-009 -2.39771e-009 -7.73091 5.47488 -0.417314 -1.98334e-009 1.44979e-009 -2.39771e-009 -2.90554 0.965183 -0.102902 -1.98334e-009 1.44979e-009 -2.39772e-009 -10.2786 0.731801 -0.0259123 -1.98334e-009 1.44979e-009 -2.39773e-009 -2.22167 -0.733487 0.20892 -2.03217e-016 0 -3.88251e-019 -2.69286 -27.6672 -1.33034 -1.19114 62.3534 1.80811 -4.93539 -4.0819 -18.0832 2.03217e-016 0 3.88251e-019 -11.9626 -14.2911 -21.5583 0.114197 25.3469 -0.308237 -1.36917 -17.2677 -5.38983 
49.9741 85.7674 -217.74 0.189714 -1.81768 116.379 2.81035 8.59269 8.96896 -0.163822 -8.32815 2.5451 -5.17404 4.86475 -5.54625 -9.05858 -13.0308 -11.4963 -0 0 0 -0 0 0 4.78954e-014 -3.23074e-012 1.3911e-012 56.1743 17.7014 30.552 -16.5622 -9.22106 30.8669 -0.335561 16.1437 2.33208 -8.0059e-009 -2.35447e-009 -4.71908e-009 -1.38828e-008 -4.19388e-009 -8.05171e-009 -8.0059e-009 -2.35446e-009 -4.71908e-009 7.73091 5.47488 0.417314 -8.0059e-009 -2.35447e-009 -4.71907e-009 2.90554 0.965183 0.102902 -8.00589e-009 -2.35447e-009 -4.71907e-009 10.2786 0.731801 0.0259123 -8.00591e-009 -2.35447e-009 -4.71906e-009 2.22167 -0.733487 -0.20892 4.77336e-014 -3.23073e-012 1.39079e-012 -58.8978 55.1611 -27.3833 24.3687 -19.7986 -50.8235 0.0233367 -4.32879 0.609564 -1.69504e-009 1.73228e-009 -2.38683e-009 -2.92216e-009 3.02393e-009 -4.15137e-009 -1.69503e-009 1.73229e-009 -2.38683e-009 -7.73091 5.47488 -0.417314 -1.69504e-009 1.73229e-009 -2.38683e-009 -2.90554 0.965183 -0.102902 -1.69504e-009 1.73229e-009 -2.38683e-009 -10.2786 0.731801 -0.0259123 -1.69504e-009 1.73229e-009 -2.38684e-009 -2.22167 -0.733487 0.20892 -2.03217e-016 0 -3.88251e-019 -2.26034 -28.2091 -0.796542 -1.22372 62.821 1.85324 -4.99092 -5.12271 -17.145 2.03217e-016 0 3.88251e-019 -11.9018 -14.4327 -21.8994 0.118378 25.6493 -0.308896 -2.08683 -17.2983 -7.34767 
49.8666 85.6538 -217.836 0.00677658 -1.68842 114.099 2.92841 8.52242 9.04403 -0.368565 -8.29721 2.55938 -4.24322 4.2647 -4.54008 -9.64011 -12.6845 -9.66277 -0 0 0 -0 0 0 4.32055e-014 -2.92876e-012 1.02577e-012 55.1709 18.8767 31.2677 -16.7086 -9.36359 31.1807 -0.402741 17.6928 2.56956 -6.14893e-009 -1.66128e-009 -3.94919e-009 -1.067e-008 -2.96343e-009 -6.74177e-009 -6.14892e-009 -1.66128e-009 -3.9492e-009 7.73091 5.47488 0.417314 -6.14893e-009 -1.66128e-009 -3.94919e-009 2.90554 0.965183 0.102902 -6.14892e-009 -1.66128e-009 -3.94919e-009 10.2786 0.731801 0.0259123 -6.14893e-009 -1.66128e-009 -3.94918e-009 2.22167 -0.733487 -0.20892 4.30543e-014 -2.92875e-012 1.02551e-012 -55.4307 56.5038 -30.7673 24.4522 -19.9629 -51.1035 0.0245561 -4.42356 0.622975 -1.17115e-009 1.74942e-009 -1.98503e-009 -2.01718e-009 3.04983e-009 -3.45262e-009 -1.17115e-009 1.74942e-009 -1.98502e-009 -7.73091 5.47488 -0.417314 -1.17115e-009 1.74942e-009 -1.98502e-009 -2.90554 0.965183 -0.102902 -1.17115e-009 1.74942e-009 -1.98503e-009 -10.2786 0.731801 -0.0259123 -1.17115e-009 1.74942e-009 -1.98504e-009 -2.22167 -0.733487 0.20892 -2.03217e-016 0 -3.88251e-019 -1.65859 -28.7105 -0.244025 -1.22824 62.9402 1.87559 -5.12783 -6.325 -16.4928 2.03217e-016 0 3.88251e-019 -11.7173 -14.7626 -22.2303 0.125484 26.0775 -0.316444 -2.89623 -17.3468 -9.51535 
49.7605 85.5739 -217.971 -0.224277 -1.49229 111.712 3.14474 8.42716 9.00588 -0.558807 -8.27275 2.54559 -3.19853 3.68785 -3.49128 -10.3174 -12.3664 -7.7853 -0 0 0 -0 0 0 3.72474e-014 -2.54081e-012 6.04028e-013 54.1952 19.8827 31.9885 -16.8601 -9.51217 31.5089 -0.459085 18.912 2.75934 -3.91961e-009 -7.98383e-010 -2.99584e-009 -6.8116e-009 -1.43384e-009 -5.11962e-009 -3.9196e-009 -7.98387e-010 -2.99585e-009 7.73091 5.47488 0.417314 -3.91961e-009 -7.98384e-010 -2.99584e-009 2.90554 0.965183 0.102902 -3.9196e-009 -7.98387e-010 -2.99585e-009 10.2786 0.731801 0.0259123 -3.91961e-009 -7.98386e-010 -2.99584e-009 2.22167 -0.733487 -0.20892 3.71041e-014 -2.54082e-012 6.0381e-013 -51.8706 57.6718 -34.1771 24.5271 -20.1142 -51.3397 0.0243735 -4.41311 0.621492 -5.85914e-010 1.66046e-009 -1.47928e-009 -1.0066e-009 2.89088e-009 -2.57308e-009 -5.85916e-010 1.66047e-009 -1.47927e-009 -7.73091 5.47488 -0.417314 -5.85911e-010 1.66047e-009 -1.47928e-009 -2.90554 0.965183 -0.102902 -5.85915e-010 1.66047e-009 -1.47928e-009 -10.2786 0.731801 -0.0259123 -5.85911e-010 1.66047e-009 -1.47929e-009 -2.22167 -0.733487 0.20892 -2.03217e-016 0 -3.88251e-019 -0.978947 -29.0908 0.367146 -1.20645 62.7239 1.87273 -5.30639 -7.54312 -16.0831 2.03217e-016 0 3.88251e-019 -11.4763 -15.1433 -22.5778 0.133765 26.5282 -0.326735 -3.72078 -17.4153 -11.6695 
49.6322 85.5444 -218.129 -0.416497 -1.22503 109.264 3.37502 8.35112 8.91111 -0.698364 -8.28919 2.51993 -2.23118 3.1881 -2.44609 -10.9189 -12.0445 -5.90131 -0 0 0 -0 0 0 2.87249e-014 -2.29616e-012 3.05433e-013 53.2548 20.7372 32.6386 -16.9975 -9.64803 31.8081 -0.501762 19.7158 2.8869 -2.28769e-009 -2.23141e-010 -2.24277e-009 -3.98603e-009 -4.12388e-010 -3.83764e-009 -2.28768e-009 -2.23147e-010 -2.24277e-009 7.73091 5.47488 0.417314 -2.28769e-009 -2.23141e-010 -2.24277e-009 2.90554 0.965183 0.102902 -2.28768e-009 -2.23145e-010 -2.24277e-009 10.2786 0.731801 0.0259123 -2.28769e-009 -2.23144e-010 -2.24276e-009 2.22167 -0.733487 -0.20892 2.85767e-014 -2.29617e-012 3.05234e-013 -48.6419 58.742 -37.1834 24.63 -20.3236 -51.6688 0.022319 -4.26095 0.599954 -1.13565e-010 1.6247e-009 -1.15658e-009 -1.90963e-010 2.82467e-009 -2.01097e-009 -1.1357e-010 1.6247e-009 -1.15657e-009 -7.73091 5.47488 -0.417314 -1.13563e-010 1.6247e-009 -1.15657e-009 -2.90554 0.965183 -0.102902 -1.13568e-010 1.62471e-009 -1.15658e-009 -10.2786 0.731801 -0.0259123 -1.13562e-010 1.62471e-009 -1.15659e-009 -2.22167 -0.733487 0.20892 -2.03217e-016 0 -3.88251e-019 -0.31605 -29.2684 1.07523 -1.16206 62.1847 1.84413 -5.48911 -8.63072 -15.8691 2.03217e-016 0 3.88251e-019 -11.2432 -15.4379 -22.9671 0.141282 26.8979 -0.335526 -4.48243 -17.5155 -13.5867 
49.4571 85.5047 -218.24 0.199947 -0.555399 102.428 3.64143 8.31876 8.73501 -0.767729 -8.37479 2.4776 -1.41634 2.76945 -1.39606 -11.3677 -11.6889 -3.97385 -0 0 0 -0 0 0 1.65523e-014 -2.31501e-012 1.85347e-013 52.3559 21.463 33.1975 -17.118 -9.76871 32.0706 -0.520203 20.0005 2.93317 -1.51299e-009 -6.20235e-011 -1.77892e-009 -2.64251e-009 -1.21988e-010 -3.04714e-009 -1.51298e-009 -6.2029e-011 -1.77893e-009 7.73091 5.47488 0.417314 -1.51299e-009 -6.2023e-011 -1.77892e-009 2.90554 0.965183 0.102902 -1.51298e-009 -6.20272e-011 -1.77892e-009 10.2786 0.731801 0.0259123 -1.51299e-009 -6.20257e-011 -1.77892e-009 2.22167 -0.733487 -0.20892 1.63726e-014 -2.31502e-012 1.85124e-013 -45.9741 59.8156 -39.5451 24.785 -20.6437 -52.1815 0.0177812 -3.88008 0.546107 2.39191e-010 1.71574e-009 -1.12148e-009 4.18296e-010 2.97868e-009 -1.94745e-009 2.39185e-010 1.71574e-009 -1.12147e-009 -7.73091 5.47488 -0.417314 2.39191e-010 1.71574e-009 -1.12148e-009 -2.90554 0.965183 -0.102902 2.39187e-010 1.71574e-009 -1.12148e-009 -10.2786 0.731801 -0.0259123 2.39194e-010 1.71574e-009 -1.12149e-009 -2.22167 -0.733487 0.20892 -2.03217e-016 0 -3.88251e-019 0.290411 -29.1722 1.79719 -1.09364 61.257 1.78838 -5.6967 -9.51715 -15.9213 2.03217e-016 0 3.88251e-019 -11.0172 -15.6053 -23.4241 0.147787 27.1816 -0.34321 -5.16673 -17.6599 -15.216 
